<?xml version="1.0" standalone="no"?>
<svg viewBox="0 0 200 200" xmlns="http://www.w3.org/2000/svg">
  <path fill="#0F62FE" d="M37.7,-64.2C50.1,-58.3,62,-50.5,66.4,-39.4C70.7,-28.4,67.6,-14.2,64.4,-1.9C61.1,10.5,57.7,20.9,51.2,28.3C44.7,35.6,35.1,39.9,26,49.8C17,59.7,8.5,75.3,-0.9,76.8C-10.2,78.3,-20.4,65.7,-30.7,56.5C-41,47.3,-51.4,41.5,-57.1,32.6C-62.8,23.8,-63.7,11.9,-66.4,-1.5C-69,-14.9,-73.2,-29.8,-67.9,-39.4C-62.7,-49,-47.9,-53.2,-35,-58.8C-22.1,-64.4,-11.1,-71.3,0.8,-72.8C12.7,-74.2,25.4,-70.1,37.7,-64.2Z" transform="translate(100 100)" />
</svg>
